<svg xmlns="http://www.w3.org/2000/svg" fill="none" viewBox="0 0 128 128"><g id="humidity__humidity"><g transform="translate(64.5 64.2)"><g id="humidity__Raindrop" transform="translate(-64.5 -64.2)"><path id="humidity__Vector" fill="url(#humidity__paint0_linear_1858_260)" stroke="#1d4ed8" stroke-miterlimit="10" d="M64.5 34.907c5.752 8.707 10.461 15.798 13.759 22.048 3.375 6.398 5.241 11.863 5.241 17.22 0 10.682-8.51 19.325-19 19.325s-19-8.668-19-19.325c0-5.344 1.866-10.803 5.241-17.201 3.298-6.251 8.007-13.348 13.759-22.067Z"/><path id="humidity__Label" fill="#fff" d="M59.867 73.936q-1.272 1.416-3.552 1.416-2.304 0-3.552-1.44-1.248-1.392-1.248-4.008t1.248-4.008 3.552-1.392 3.552 1.392q1.224 1.416 1.224 4.008 0 2.64-1.224 4.032m.432 8.424h-2.976l11.28-17.808h2.952zm-5.904-12.432q0 3.048 1.92 3.048t1.92-3.048q0-3.024-1.92-3.024t-1.92 3.024m21.84 11.016q-1.248 1.44-3.552 1.44t-3.528-1.44q-1.248-1.392-1.248-4.008t1.248-4.008q1.224-1.392 3.528-1.392t3.552 1.392q1.224 1.416 1.224 4.008 0 2.616-1.224 4.008m-3.552-7.008q-1.92 0-1.92 3.024t1.92 3.024 1.92-3.024-1.92-3.024"/></g><animateTransform additive="sum" attributeName="transform" begin="0s" calcMode="spline" dur="3s" keySplines=".42 0 .58 1; .42 0 .58 1" repeatCount="indefinite" type="scale" values="1 1;1.1 1.1;1 1"/></g></g><defs><linearGradient id="humidity__paint0_linear_1858_260" x1="64.5" x2="64.5" y1="34" y2="94" gradientUnits="userSpaceOnUse"><stop stop-color="#2563eb"/><stop offset="1" stop-color="#1d4ed8"/></linearGradient></defs></svg>