<svg xmlns="http://www.w3.org/2000/svg" fill="none" viewBox="0 0 128 128"><g id="moon-new__moon-new" clip-path="url(#moon-new__clip0_1868_4537)"><g id="moon-new__Moon Phase"><path id="moon-new__Placeholder" fill="#e2e8f0" d="M60.209 92.755A29 29 0 0 0 64 93v3c-1.417 0-2.812-.094-4.18-.272zm7.97 2.973A32 32 0 0 1 64 96v-3a29 29 0 0 0 3.791-.245zM46.347 87.01A29 29 0 0 0 52.9 90.8l-1.149 2.77a32 32 0 0 1-7.231-4.183zm37.133 2.377a32 32 0 0 1-7.232 4.182L75.1 90.801a29 29 0 0 0 6.553-3.791zM37.2 75.1a29 29 0 0 0 3.79 6.553l-2.378 1.826a32 32 0 0 1-4.182-7.231zm56.37 1.148a32 32 0 0 1-4.183 7.231l-2.377-1.826A29 29 0 0 0 90.8 75.1zM32 64q.002-2.127.272-4.18l2.973.389a29.3 29.3 0 0 0 0 7.582l-2.973.388A32 32 0 0 1 32 64m64 0c0 1.416-.094 2.811-.272 4.179l-2.973-.388a29.3 29.3 0 0 0 0-7.582l2.973-.389c.178 1.368.272 2.763.272 4.18M40.99 46.347A29 29 0 0 0 37.2 52.9l-2.77-1.149a32 32 0 0 1 4.182-7.231zm48.397-1.828a32 32 0 0 1 4.182 7.232l-2.768 1.15a29 29 0 0 0-3.791-6.554zM52.9 37.2a29 29 0 0 0-6.553 3.791l-1.828-2.378a32 32 0 0 1 7.232-4.182zm23.348-2.77a32 32 0 0 1 7.231 4.183l-1.826 2.378A29 29 0 0 0 75.1 37.2zM64 32q2.126.002 4.179.272l-.388 2.973a29.3 29.3 0 0 0-7.582 0l-.389-2.973A32 32 0 0 1 64 32"/></g></g><defs><clipPath id="moon-new__clip0_1868_4537"><rect width="128" height="128" fill="#fff"/></clipPath></defs></svg>